<svg xmlns="http://www.w3.org/2000/svg" viewBox="0 0 85.67 101.37"><defs><style>.cls-1{fill:#fff;}.cls-2{fill:#f3dedf;}.cls-3{fill:#d58c90;}.cls-4{fill:#e6babd;}.cls-5{fill:#e6bbbd;}.cls-6{fill:#f4e1e2;}.cls-7{fill:#f4e2e3;}.cls-8{fill:#ac1a22;}.cls-9{fill:#f0efda;}</style></defs><title>nico-ico</title><g id="Capa_2" data-name="Capa 2"><g id="Capa_1-2" data-name="Capa 1"><path class="cls-1" d="M85.73,35.2v66.24H.06V.06H41.81a.07.07,0,0,1,0,.1,2.19,2.19,0,0,1-.74.13C39.5.36,38,.54,36.41.75a65.75,65.75,0,0,0-7.8,1.52,52.73,52.73,0,0,0-9.44,3.38,37.83,37.83,0,0,0-7.68,4.78A28.37,28.37,0,0,0,4.1,19.37a29.06,29.06,0,0,0-3,9.7C.91,30.31.86,31.56.77,32.8a28.48,28.48,0,0,0,0,3.59,64.45,64.45,0,0,0,.94,7.67A83.34,83.34,0,0,0,6.19,59.87a88.9,88.9,0,0,0,4.07,9,99.48,99.48,0,0,0,7.27,11.82q2.53,3.54,5.33,6.88c1.15,1.37,2.34,2.7,3.55,4,1.49,1.63,3.06,3.18,4.61,4.75a9,9,0,0,1,.86.81,16.8,16.8,0,0,0,5.3,3.12,17.28,17.28,0,0,0,7.92.95,16.84,16.84,0,0,0,7.84-2.89,10.1,10.1,0,0,0,1.47-1.15C55.74,96,57,94.71,58.19,93.44c1.85-1.93,3.64-3.91,5.36-6a108.81,108.81,0,0,0,7.6-10.21q2.22-3.39,4.16-6.95a90.19,90.19,0,0,0,5-10.83,82.83,82.83,0,0,0,2.84-8.83,79.63,79.63,0,0,0,1.64-7.81c.26-1.68.5-3.37.63-5.06.06-.75.14-1.5.14-2.26a.52.52,0,0,1,.06-.31A.07.07,0,0,1,85.73,35.2Z" transform="translate(-0.06 -0.06)"/><path class="cls-1" d="M44.55.06H85.73V32.89a.07.07,0,0,1-.1,0,.71.71,0,0,1-.07-.38,33.11,33.11,0,0,0-.78-6.16A28.23,28.23,0,0,0,82.06,19a27.68,27.68,0,0,0-3.37-4.87A31.25,31.25,0,0,0,72.2,8.47a42.56,42.56,0,0,0-8.49-4.3A61.21,61.21,0,0,0,51.59,1Q49,.56,46.31.36A6.58,6.58,0,0,1,44.56.16.07.07,0,0,1,44.55.06Z" transform="translate(-0.06 -0.06)"/><path class="cls-2" d="M85.67,32.89h.06v2.3h-.06a.39.39,0,0,1-.12-.33q0-.83,0-1.66A.39.39,0,0,1,85.67,32.89Z" transform="translate(-0.06 -0.06)"/><path class="cls-3" d="M42.75.06h.86a.08.08,0,0,1,0,.11,1.18,1.18,0,0,1-.81,0A.08.08,0,0,1,42.75.06Z" transform="translate(-0.06 -0.06)"/><path class="cls-4" d="M42.75.06V.12a.47.47,0,0,1-.54.05.08.08,0,0,1,0-.11Z" transform="translate(-0.06 -0.06)"/><path class="cls-5" d="M43.62.12V.06h.58a.08.08,0,0,1,0,.11A.47.47,0,0,1,43.62.12Z" transform="translate(-0.06 -0.06)"/><path class="cls-6" d="M42.17.06s0,0,0,.06a.24.24,0,0,1-.36,0s0,0,0-.07Z" transform="translate(-0.06 -0.06)"/><path class="cls-7" d="M44.19.12s0,0,0-.06h.36s0,0,0,.07A.24.24,0,0,1,44.19.12Z" transform="translate(-0.06 -0.06)"/><path class="cls-8" d="M44.19.12a1.07,1.07,0,0,0,.36,0l2.62.21c1.59.13,3.17.34,4.74.6a63.81,63.81,0,0,1,7.84,1.78,47.12,47.12,0,0,1,11.5,5,31.58,31.58,0,0,1,8.45,7.47,27.79,27.79,0,0,1,5.17,11,32.6,32.6,0,0,1,.8,6.63V35.2c0,1.24-.11,2.47-.24,3.7q-.23,2.13-.57,4.24-.68,4.1-1.75,8.11a87,87,0,0,1-6.33,16.48A101.28,101.28,0,0,1,65.66,85a114.74,114.74,0,0,1-10.45,11.5,5.59,5.59,0,0,1-.73.64,1.79,1.79,0,0,1-.18-1c-.05-1.9-.18-3.8-.22-5.71,0-.3-.13-.41-.41-.39H33c-.67,0-.64,0-.68.67-.08,1.39-.09,2.78-.19,4.16,0,.62,0,1.25-.09,1.87,0,.14.05.33-.17.37-2-1.83-3.82-3.74-5.63-5.71A105.43,105.43,0,0,1,10.37,69.25a86.72,86.72,0,0,1-7.7-20.31q-.89-3.71-1.42-7.48a51.8,51.8,0,0,1-.6-7.6A32.77,32.77,0,0,1,2.6,22.5,28,28,0,0,1,11,10.71a38.91,38.91,0,0,1,10.25-6.1A57.76,57.76,0,0,1,32.19,1.35c2-.39,3.94-.69,5.93-.92C39.35.3,40.58.22,41.81.13a1.09,1.09,0,0,0,.36,0h.57a5.82,5.82,0,0,0,.87,0A2.91,2.91,0,0,0,44.19.12Z" transform="translate(-0.06 -0.06)"/><path class="cls-9" d="M31.81,97.17c.1-.06.07-.17.07-.26,0-.81.08-1.63.12-2.44q.09-2.07.17-4.13c0-.35,0-.35.37-.35H53.91c.26,0,.26,0,.27.26,0,.57,0,1.15.07,1.72l.22,5c0,.07,0,.14,0,.21a4,4,0,0,1-1,.88,16.78,16.78,0,0,1-2.94,1.72,17.93,17.93,0,0,1-4,1.3,13.24,13.24,0,0,1-1.91.26,20.15,20.15,0,0,1-2.61,0c-.42,0-.85-.05-1.27-.11a16.49,16.49,0,0,1-2.07-.41,18,18,0,0,1-4-1.59,15.49,15.49,0,0,1-2.35-1.57A3.42,3.42,0,0,1,31.81,97.17Z" transform="translate(-0.06 -0.06)"/><path class="cls-9" d="M22.66,26.26c-.21-.78-.4-1.51-.6-2.23-.49-1.79-1-3.58-1.55-5.35-.09-.31-.1-.31.2-.45a85.24,85.24,0,0,1,15.93-6,40.36,40.36,0,0,1,5.66-1,10.89,10.89,0,0,1,2.54.09,57.09,57.09,0,0,1,12.82,3.45q4,1.52,7.93,3.41c.37.18.37.18.25.58-.73,2.37-1.4,4.76-2,7.16,0,.1,0,.21-.07.34h1.71a.8.8,0,0,0,.36-.14,33.71,33.71,0,0,1,4.27-1.9,8.06,8.06,0,0,1,1.74-.43,1.13,1.13,0,0,1,1.33.68,4.44,4.44,0,0,1,.49,1.64,14.87,14.87,0,0,1-.06,4.3,4.12,4.12,0,0,1-.5,1.42,1.06,1.06,0,0,1-1,.57,5.93,5.93,0,0,1-1.44-.28,26.05,26.05,0,0,1-3.85-1.59,6.07,6.07,0,0,0-1.2-.57,6.28,6.28,0,0,0-1.36,0H63.05c-.28,0-.29,0-.35.28-.27,1.16-.54,2.31-.79,3.47q-.7,3.14-1.2,6.32c-.22,1.36-.38,2.73-.52,4.1,0,.08,0,.17,0,.25a.11.11,0,0,0,.13.13h3.2a1.14,1.14,0,0,0,.55-.13,31.6,31.6,0,0,1,4.57-2A6.67,6.67,0,0,1,70.23,42a1.1,1.1,0,0,1,1.12.61,4.57,4.57,0,0,1,.54,1.74,14.79,14.79,0,0,1-.05,4.23,4.36,4.36,0,0,1-.5,1.45,1.08,1.08,0,0,1-1.1.58,7.21,7.21,0,0,1-1.89-.44,32.37,32.37,0,0,1-4.27-1.9,1.28,1.28,0,0,0-.62-.15H60.15c-.31,0-.31,0-.33.32-.11,1.89-.23,3.78-.32,5.68-.12,2.53-.22,5.06-.29,7.59,0,.25,0,.5,0,.75s.06.23.23.23H61a.92.92,0,0,0,.44-.15,35.76,35.76,0,0,1,3.93-1.77,10.48,10.48,0,0,1,1.83-.52,1.26,1.26,0,0,1,1.66.87,6,6,0,0,1,.46,2.13,16.57,16.57,0,0,1-.06,3.09,5.14,5.14,0,0,1-.49,1.76,1.16,1.16,0,0,1-1.41.72,11.16,11.16,0,0,1-2.65-.79,34.87,34.87,0,0,1-3.26-1.52,1.34,1.34,0,0,0-.69-.17c-.46,0-.91,0-1.37,0-.3,0-.3,0-.31.29q0,1.83-.07,3.67c0,1,0,2-.05,3a.71.71,0,0,1-.11.37q-2.28,3.79-4.55,7.59a.45.45,0,0,1-.48.22H32.58a.59.59,0,0,1-.59-.34q-2.2-3.69-4.42-7.37a1.16,1.16,0,0,1-.17-.61c0-2.16-.08-4.32-.12-6.48,0-.29,0-.29-.3-.3H26.9a9,9,0,0,0-1.62,0,6.26,6.26,0,0,0-1.43.67A26,26,0,0,1,20,68.64a7.06,7.06,0,0,1-1.09.23,1.12,1.12,0,0,1-1.31-.65,4.42,4.42,0,0,1-.5-1.64,14.57,14.57,0,0,1,.06-4.33,4.31,4.31,0,0,1,.46-1.36,1.1,1.1,0,0,1,1.15-.63,6.58,6.58,0,0,1,1.34.27,26.49,26.49,0,0,1,3.79,1.55,3.11,3.11,0,0,1,.39.19,2.93,2.93,0,0,0,2,.46c.21,0,.43,0,.65,0s.24,0,.23-.25c0-.76,0-1.51-.07-2.27S27,58.46,27,57.58c-.08-1.86-.15-3.72-.25-5.57-.06-1.17-.14-2.35-.21-3.52,0-.33,0-.33-.35-.33H22.83a1.07,1.07,0,0,0-.51.13A33.11,33.11,0,0,1,18,50.21a7.87,7.87,0,0,1-1.78.42A1.16,1.16,0,0,1,15,49.94a4.74,4.74,0,0,1-.48-1.61A14.78,14.78,0,0,1,14.53,44,4.41,4.41,0,0,1,15,42.67,1.12,1.12,0,0,1,16.14,42a6.94,6.94,0,0,1,1.61.35,31.16,31.16,0,0,1,4.51,2,1.35,1.35,0,0,0,.65.16h3c.34,0,.34,0,.31-.33-.13-1.23-.27-2.46-.45-3.68-.52-3.43-1.24-6.81-2.05-10.18l0-.18a.21.21,0,0,0-.24-.2H20.95a.79.79,0,0,0-.37.13,34.87,34.87,0,0,1-4.17,1.86,9.48,9.48,0,0,1-1.59.44l-.32,0a1.17,1.17,0,0,1-1.32-.77,4.89,4.89,0,0,1-.44-1.51,14.52,14.52,0,0,1,.05-4.33,4.44,4.44,0,0,1,.47-1.39,1.13,1.13,0,0,1,1.23-.61,8.3,8.3,0,0,1,1.81.44,32.52,32.52,0,0,1,4.2,1.87,1.43,1.43,0,0,0,.72.17C21.69,26.25,22.14,26.26,22.66,26.26Z" transform="translate(-0.06 -0.06)"/><path class="cls-9" d="M43.18,83.57H55.06c.26,0,.27,0,.27.25,0,1.33,0,2.66,0,4,0,.2-.07.26-.25.24H31.5c-.53,0-.47.06-.47-.45q0-1.84,0-3.67c0-.39,0-.36.38-.36Z" transform="translate(-0.06 -0.06)"/><path class="cls-8" d="M33.6,67.46a2.91,2.91,0,1,1,2.93-2.92A2.9,2.9,0,0,1,33.6,67.46Z" transform="translate(-0.06 -0.06)"/><path class="cls-8" d="M52.73,67.46a2.91,2.91,0,1,1,0-5.82,2.91,2.91,0,0,1,0,5.82Z" transform="translate(-0.06 -0.06)"/><path class="cls-8" d="M35.48,28.1a2.91,2.91,0,1,1-2.89-2.92A2.89,2.89,0,0,1,35.48,28.1Z" transform="translate(-0.06 -0.06)"/><path class="cls-8" d="M53.77,25.18a2.91,2.91,0,1,1-2.89,2.92A2.92,2.92,0,0,1,53.77,25.18Z" transform="translate(-0.06 -0.06)"/><path class="cls-8" d="M55.64,46.32a2.91,2.91,0,1,1-2.9-2.91A2.91,2.91,0,0,1,55.64,46.32Z" transform="translate(-0.06 -0.06)"/><path class="cls-8" d="M30.71,46.31a2.91,2.91,0,1,1,2.88,2.93A2.91,2.91,0,0,1,30.71,46.31Z" transform="translate(-0.06 -0.06)"/></g></g></svg>